#!OML:ASF H:\Terrain\Patient Classification 1\Terrain2\Thursday\justin.ASF
:FULLY-SPECIFIED
:DEGREES
3121
root 16.5289 20.2009 -0.145932 381.525 -81.871 -370.728
lowerback 25.6242 -1.55966 1.59352
upperback 5.50801 -1.59891 5.09131
thorax -7.99409 -0.96098 5.27615
lowerneck -17.7644 -3.75351 -9.50821
upperneck 24.3931 -5.46848 9.66715
head 11.4067 -2.28886 4.33332
rclavicle 1.19271e-015 2.06736e-014
rhumerus -27.0705 -4.28602 -77.0939
rradius 35.4873
rwrist -9.62692
rhand -20.5167 12.9483
rfingers 7.12502
rthumb 5.84101 -16.9512
lclavicle 1.19271e-015 2.06736e-014
lhumerus -22.032 -15.4565 87.3939
lradius 45.0663
lwrist 10.7761
lhand -22.5857 23.0529
lfingers 7.12502
lthumb 3.8432 52.998
rfemur -93.7458 -12.5945 36.4385
rtibia 115.087
rfoot -30.684 -6.6282
rtoes 16.5427
lfemur 6.15321 -4.99026 -15.524
ltibia -2.54444e-014
lfoot 33.9128 7.46479
ltoes -2.30806
3122
root 16.4226 20.3958 -0.161932 380.613 -81.7211 -369.266
lowerback 25.4253 -1.72213 1.97282
upperback 5.39311 -1.71062 4.96859
thorax -8.0271 -1.01479 4.94723
lowerneck -17.534 -3.79203 -9.25883
upperneck 24.1135 -5.55768 9.55188
head 11.2547 -2.3231 4.2251
rclavicle 2.34566e-014 2.22639e-014
rhumerus -27.0999 -3.81707 -77.253
rradius 35.9584
rwrist -9.67364
rhand -20.6928 13.1363
rfingers 7.12502
rthumb 5.67098 -16.7678
lclavicle 2.34566e-014 2.22639e-014
lhumerus -21.8635 -15.9614 87.1761
lradius 45.4349
lwrist 10.5345
lhand -22.3202 22.8416
lfingers 7.12502
lthumb 4.09953 52.7819
rfemur -92.6866 -12.9233 36.3193
rtibia 113.872
rfoot -31.0215 -6.30556
rtoes 17.068
lfemur 5.6666 -4.8771 -15.4637
ltibia 3.18055e-014
lfoot 33.8489 7.44778
ltoes -0.310039
3123
root 16.3199 20.5793 -0.177532 380.856 -81.6383 -369.193
lowerback 25.4475 -1.82303 2.47104
upperback 5.33688 -1.71089 4.88415
thorax -8.11698 -1.02226 4.56868
lowerneck -17.4351 -3.80081 -9.1098
upperneck 23.9917 -5.60958 9.54643
head 11.1906 -2.33521 4.1862
rclavicle 9.54166e-015 -2.8625e-014
rhumerus -27.1078 -2.91987 -77.4339
rradius 36.5073
rwrist -10.3172
rhand -21.0324 13.189
rfingers 7.12502
rthumb 5.34306 -16.7236
lclavicle 9.54166e-015 -2.8625e-014
lhumerus -21.6467 -16.7843 87.0486
lradius 45.9461
lwrist 10.9333
lhand -23.0486 23.0765
lfingers 7.12502
lthumb 3.39617 53.0291
rfemur -91.41 -13.0828 36.403
rtibia 112.674
rfoot -31.3825 -6.76861
rtoes 15.6985
lfemur 5.5272 -4.65025 -15.2348
ltibia -3.49861e-014
lfoot 33.2332 6.60314
ltoes 0.0516016
3124
root 16.2193 20.759 -0.182948 378.909 -81.8366 -366.759
lowerback 25.2881 -1.87505 2.48334
upperback 5.25912 -1.7781 4.77991
thorax -8.12282 -1.0499 4.4601
lowerneck -17.602 -3.75877 -9.23366
upperneck 24.1407 -5.52339 9.58596
head 11.2747 -2.29919 4.2396
rclavicle 3.97569e-015 9.54166e-015
rhumerus -26.9345 -2.19473 -77.449
rradius 37.0028
rwrist -10.3068
rhand -21.0024 12.9736
rfingers 7.12502
rthumb 5.37199 -16.9383
lclavicle 3.97569e-015 9.54166e-015
lhumerus -21.3517 -17.1788 86.948
lradius 46.4089
lwrist 10.4975
lhand -22.952 24.0749
lfingers 7.12502
lthumb 3.48941 54.0261
rfemur -90.3516 -13.0798 35.936
rtibia 111.498
rfoot -31.7672 -6.96952
rtoes 14.4362
lfemur 5.26808 -4.25854 -15.4716
ltibia -6.36111e-015
lfoot 32.4613 6.24055
ltoes 0.503317
3125
root 16.1098 20.962 -0.190856 375.52 -82.1581 -362.858
lowerback 24.957 -1.91827 2.25628
upperback 5.15347 -1.90329 4.59411
thorax -8.06499 -1.09819 4.40731
lowerneck -17.5324 -3.71281 -9.36497
upperneck 24.1672 -5.43482 9.60577
head 11.2651 -2.27175 4.28444
rclavicle 3.33958e-014 1.90833e-014
rhumerus -26.6624 -2.82162 -77.0524
rradius 37.7331
rwrist -11.7104
rhand -17.5149 12.9763
rfingers 7.12502
rthumb 8.73848 -16.8228
lclavicle 3.33958e-014 1.90833e-014
lhumerus -20.8808 -16.4235 86.4729
lradius 45.8744
lwrist 7.55459
lhand -19.9547 20.3473
lfingers 7.12502
lthumb 6.38356 50.2311
rfemur -89.1994 -13.1712 35.2324
rtibia 110.246
rfoot -32.1139 -6.58056
rtoes 14.7176
lfemur 5.04565 -3.7877 -15.9684
ltibia 6.36111e-015
lfoot 31.9499 5.60603
ltoes -0.583204
3126
root 15.9986 21.1344 -0.201464 375.275 -82.4045 -362.365
lowerback 24.7526 -1.92171 2.4388
upperback 5.11689 -1.87158 4.52481
thorax -8.01068 -1.08567 4.20495
lowerneck -17.4019 -3.73319 -9.35433
upperneck 24.1034 -5.45427 9.53821
head 11.2152 -2.29056 4.25258
rclavicle 1.35174e-014 1.90833e-014
rhumerus -26.5467 -2.81274 -77.0232
rradius 38.0214
rwrist -11.1958
rhand -17.6189 13.3668
rfingers 7.12502
rthumb 8.63813 -16.4365
lclavicle 1.35174e-014 1.90833e-014
lhumerus -20.5117 -16.4481 86.2586
lradius 45.8017
lwrist 6.43618
lhand -17.9219 17.6597
lfingers 7.12502
lthumb 8.34575 47.4748
rfemur -87.8577 -13.1273 35.0476
rtibia 109.067
rfoot -32.3829 -6.57986
rtoes 13.4459
lfemur 2.11164 -3.21967 -15.954
ltibia 6.10653
lfoot 28.8673 3.17417
ltoes -5.51875
